<?xml version="1.0" encoding="UTF-8" standalone="no"?>
<!DOCTYPE svg PUBLIC "-//W3C//DTD SVG 1.1//EN" "http://www.w3.org/Graphics/SVG/1.1/DTD/svg11.dtd">
<svg width="100%" height="100%" viewBox="0 0 761 701" version="1.1" xmlns="http://www.w3.org/2000/svg" xmlns:xlink="http://www.w3.org/1999/xlink" xml:space="preserve" xmlns:serif="http://www.serif.com/" style="fill-rule:evenodd;clip-rule:evenodd;stroke-linejoin:round;stroke-miterlimit:2;">
    <g transform="matrix(1,0,0,1,-219.5,-99.6449)">
        <path d="M261.134,348.568C273.562,371.617 299.94,381.512 299.94,381.512C299.94,381.512 306.167,354.036 293.739,330.987C281.31,307.938 254.933,298.044 254.933,298.044C254.933,298.044 248.706,325.519 261.134,348.568Z" style="fill:rgb(52,58,64);fill-rule:nonzero;"/>
    </g>
    <g transform="matrix(1,0,0,1,-219.5,-99.6449)">
        <path d="M269.677,340.985C292.115,354.485 300.757,381.299 300.757,381.299C300.757,381.299 273.019,386.226 250.58,372.726C228.142,359.226 219.5,332.412 219.5,332.412C219.5,332.412 247.238,327.485 269.677,340.985Z" style="fill:rgb(108,99,255);fill-rule:nonzero;"/>
    </g>
    <g transform="matrix(1,0,0,1,-219.5,-99.6449)">
        <path d="M980.5,723.355C980.5,747.656 922.745,800.355 851.5,800.355C780.255,800.355 722.5,747.656 722.5,723.355C722.5,699.055 780.255,712.355 851.5,712.355C922.745,712.355 980.5,699.055 980.5,723.355Z" style="fill:rgb(63,61,86);fill-rule:nonzero;"/>
    </g>
    <g transform="matrix(1,0,0,1,-219.5,-99.6449)">
        <path d="M980.5,723.355C980.5,747.656 922.745,800.355 851.5,800.355C780.255,800.355 722.5,747.656 722.5,723.355C722.5,699.055 780.255,712.355 851.5,712.355C922.745,712.355 980.5,699.055 980.5,723.355Z" style="fill-opacity:0.1;fill-rule:nonzero;"/>
    </g>
    <ellipse cx="632" cy="623.71" rx="129" ry="44" style="fill:rgb(63,61,86);"/>
    <rect x="76" y="301.71" width="410" height="234" style="fill:rgb(241,241,241);"/>
    <ellipse cx="677.5" cy="40.71" rx="39.5" ry="37" style="fill:rgb(47,46,65);"/>
    <g transform="matrix(1,0,0,1,-219.5,-99.6449)">
        <path d="M782,370.855L772,384.855C772,384.855 724,394.855 742,409.855C760,424.855 786,395.855 786,395.855L800,377.855L782,370.855Z" style="fill:rgb(255,184,184);fill-rule:nonzero;"/>
    </g>
    <g transform="matrix(1,0,0,1,-219.5,-99.6449)">
        <path d="M834,211.855C834,211.855 821,211.855 818,229.855C815,247.855 812,307.855 812,307.855C812,307.855 770,362.855 777,369.855C784,376.855 792,389.855 797,387.855C802,385.855 845,326.855 845,326.855L834,211.855Z" style="fill:rgb(108,99,255);fill-rule:nonzero;"/>
    </g>
    <g transform="matrix(1,0,0,1,-219.5,-99.6449)">
        <path d="M834,211.855C834,211.855 821,211.855 818,229.855C815,247.855 812,307.855 812,307.855C812,307.855 770,362.855 777,369.855C784,376.855 792,389.855 797,387.855C802,385.855 845,326.855 845,326.855L834,211.855Z" style="fill-opacity:0.1;fill-rule:nonzero;"/>
    </g>
    <g transform="matrix(1,0,0,1,-219.5,-99.6449)">
        <path d="M874,160.855C874,160.855 873,199.855 861,201.855C849,203.855 853,216.855 853,216.855C853,216.855 892,239.855 918,216.855L923,204.855C923,204.855 905,191.855 913,173.855L874,160.855Z" style="fill:rgb(255,184,184);fill-rule:nonzero;"/>
    </g>
    <g transform="matrix(1,0,0,1,-219.5,-99.6449)">
        <path d="M807,400.855C807,400.855 748,510.855 770,544.855C792,578.855 825,648.855 830,648.855C835,648.855 863,634.855 861,625.855C859,616.855 829,549.855 821,543.855C813,537.855 817,521.855 818,520.855C819,519.855 852,466.855 852,466.855C852,466.855 851,550.855 855,563.855C859,576.855 854,669.855 859,673.855C864,677.855 887,684.855 891,678.855C895,672.855 907,581.855 899,560.855L914,416.855L807,400.855Z" style="fill:rgb(52,58,64);fill-rule:nonzero;"/>
    </g>
    <g transform="matrix(1,0,0,1,-219.5,-99.6449)">
        <path d="M861,667.855L836,713.855C836,713.855 800,739.855 825,743.855C850,747.855 865,737.855 865,737.855L887,721.855L887,675.855L861,667.855Z" style="fill:rgb(52,58,64);fill-rule:nonzero;"/>
    </g>
    <g transform="matrix(1,0,0,1,-219.5,-99.6449)">
        <path d="M827,641.855L840,672.855C840,672.855 845,685.855 840,688.855C835,691.855 821,709.855 830,711.855C831.811,712.21 833.65,712.393 835.495,712.401C850.632,712.656 865.235,706.714 875.893,695.962L884,687.855C884,687.855 856.23,623.907 856.615,624.381C857,624.855 827,641.855 827,641.855Z" style="fill:rgb(52,58,64);fill-rule:nonzero;"/>
    </g>
    <circle cx="679.5" cy="51.21" r="34" style="fill:rgb(255,184,184);"/>
    <g transform="matrix(1,0,0,1,-219.5,-99.6449)">
        <path d="M918.5,198.355L908,208.855C908,208.855 876,220.855 861,208.855C861,208.855 866.5,197.355 866.5,198.355C866.5,199.355 823,205.855 819,223.855C815,241.855 822,272.855 822,272.855C822,272.855 794,404.855 805,407.855C816,410.855 919,435.855 918,416.855C917,397.855 926,319.855 926,319.855L961,252.855C961,252.855 956,230.855 944,223.855C932,216.855 918.5,198.355 918.5,198.355Z" style="fill:rgb(108,99,255);fill-rule:nonzero;"/>
    </g>
    <g transform="matrix(1,0,0,1,-219.5,-99.6449)">
        <path d="M874,393.855L861,401.855C861,401.855 811,435.855 837,441.855C863,447.855 878,417.855 878,417.855L888,405.855L874,393.855Z" style="fill:rgb(255,184,184);fill-rule:nonzero;"/>
    </g>
    <g transform="matrix(1,0,0,1,-219.5,-99.6449)">
        <path d="M948,246.855L957,255.855C957,255.855 963,339.855 951,356.855C939,373.855 884,419.855 881,416.855C878,413.855 859,398.855 863,396.855C867,394.855 920.183,339.286 920.183,339.286L916,261.855L948,246.855Z" style="fill-opacity:0.1;fill-rule:nonzero;"/>
    </g>
    <g transform="matrix(1,0,0,1,-219.5,-99.6449)">
        <path d="M952,243.855L961,252.855C961,252.855 967,336.855 955,353.855C943,370.855 888,416.855 885,413.855C882,410.855 863,395.855 867,393.855C871,391.855 924.183,336.286 924.183,336.286L920,258.855L952,243.855Z" style="fill:rgb(108,99,255);fill-rule:nonzero;"/>
    </g>
    <g transform="matrix(1,0,0,1,-219.5,-99.6449)">
        <path d="M884.938,102.56C884.938,102.56 873.381,98.358 857.621,107.288L866.026,109.39C866.026,109.39 853.418,110.44 851.842,127.251L857.621,127.251C857.621,127.251 853.943,141.961 857.621,146.164L859.985,141.698L866.814,155.357L868.39,148.528L871.542,149.578L873.643,138.546C873.643,138.546 878.897,146.426 883.1,146.952L883.1,140.122C883.1,140.122 894.657,153.256 898.334,152.73L893.081,145.376L900.436,146.952L897.284,141.698L916.196,146.952L911.993,141.698L925.127,145.901L931.431,148.528C931.431,148.528 940.362,128.039 927.754,113.855C915.145,99.671 896.759,96.519 884.938,102.56Z" style="fill:rgb(52,58,64);fill-rule:nonzero;"/>
    </g>
    <g transform="matrix(1,0,0,1,-219.5,-99.6449)">
        <path d="M554.598,528.438C553.758,528.967 552.889,529.458 551.991,529.911C536.882,537.51 518.197,531.354 510.564,516.262L503.912,503.071L508.377,500.82L515.029,514.011C519.413,522.715 528.363,528.229 538.109,528.229C552.285,528.229 563.951,516.563 563.951,502.387C563.951,498.34 563,494.35 561.176,490.737L533.239,435.344C528.853,426.647 519.907,421.139 510.166,421.139C495.99,421.139 484.325,432.804 484.325,446.981C484.325,451.023 485.273,455.009 487.093,458.617L496.984,478.229L492.519,480.48L482.628,460.869C480.459,456.564 479.328,451.809 479.328,446.989C479.328,430.07 493.251,416.147 510.17,416.147C521.793,416.147 532.468,422.717 537.704,433.093L565.641,488.486C572.752,502.588 567.942,519.989 554.598,528.438L554.598,528.438Z" style="fill:rgb(63,61,86);fill-rule:nonzero;"/>
    </g>
    <g transform="matrix(1,0,0,1,-219.5,-99.6449)">
        <path d="M557.3,596.809C556.472,597.331 555.613,597.817 554.723,598.267C539.614,605.866 520.929,599.709 513.296,584.617L485.36,529.224C483.188,524.917 482.056,520.16 482.056,515.336C482.056,498.417 495.979,484.494 512.898,484.494C524.524,484.494 535.201,491.068 540.436,501.448L547.775,516L543.31,518.251L535.971,503.699C531.585,495.002 522.639,489.494 512.898,489.494C498.722,489.494 487.056,501.16 487.056,515.336C487.056,519.378 488.005,523.364 489.825,526.973L517.761,582.366C522.145,591.071 531.095,596.584 540.841,596.584C555.017,596.584 566.682,584.919 566.682,570.742C566.682,566.696 565.732,562.705 563.908,559.093L554.291,540.026L558.756,537.775L568.373,556.842C575.469,570.957 570.648,588.358 557.3,596.809Z" style="fill:rgb(63,61,86);fill-rule:nonzero;"/>
    </g>
    <g transform="matrix(1,0,0,1,-219.5,-99.6449)">
        <path d="M756.5,637.355L294.5,637.355L294.5,380.355L756.5,380.355L756.5,637.355ZM296.5,635.355L754.5,635.355L754.5,382.355L296.5,382.355L296.5,635.355Z" style="fill:rgb(47,46,65);fill-rule:nonzero;"/>
    </g>
</svg>
